<svg height="511pt" viewBox="-51 0 511 511.99889" width="511pt" xmlns="http://www.w3.org/2000/svg"><path d="m239.414062 59.730469 25.601563 110.933593 42.664063-25.597656s17.066406-51.199218 8.535156-68.265625c-6.53125-9.941406-15.296875-18.210937-25.601563-24.152343zm0 0" fill="#283593"/><path d="m290.527344 151.292969c5.890625-4.691407 25.6875-18.089844 25.6875 18.773437 0 35.074219-22.359375 41.730469-30.890625 43.011719h-160.085938c-8.535156-1.28125-30.890625-7.9375-30.890625-43.011719 0-36.863281 19.796875-23.464844 25.683594-18.773437zm0 0" fill="#02a9f4"/><path d="m401.546875 406.269531c.011719 21.257813-8.425781 41.644531-23.453125 56.675781-15.03125 15.027344-35.417969 23.464844-56.675781 23.453126l-30.804688 17.066406h-170.667969l-30.804687-17.066406c-42.910156-.011719-78.203125-33.816407-80.054687-76.691407-1.851563-42.871093 30.390624-79.597656 73.144531-83.308593l68.605469-5.972657h108.886718l68.609375 5.972657c41.417969 3.621093 73.203125 38.292968 73.214844 79.871093zm0 0" fill="#00838f"/><path d="m375.945312 406.269531c.015626 21.257813-8.421874 41.644531-23.453124 56.675781-15.03125 15.027344-35.417969 23.464844-56.671876 23.453126l-30.804687 17.066406h-145.070313l-30.804687-17.066406c-42.910156-.011719-78.203125-33.816407-80.054687-76.691407-1.851563-42.871093 30.390624-79.597656 73.144531-83.308593l68.605469-5.972657h83.289062l68.605469 5.972657c41.421875 3.621093 73.203125 38.292968 73.214843 79.871093zm0 0" fill="#00bcd4"/><path d="m350.347656 443.730469v34.136719l-2.945312 4.21875c-8.363282 2.863281-17.144532 4.320312-25.984375 4.3125l-30.804688 17.066406h-170.667969l-30.804687-17.066406c-8.839844.007812-17.617187-1.449219-25.980469-4.3125l-2.945312-4.21875v-34.136719c0-9.425781 7.640625-17.066407 17.066406-17.066407h256c9.425781 0 17.066406 7.640626 17.066406 17.066407zm0 0" fill="#00838f"/><path d="m333.28125 409.597656v68.269532c.007812 6.789062-2.6875 13.308593-7.488281 18.109374-4.804688 4.804688-11.320313 7.5-18.113281 7.488282h-204.800782c-6.789062.011718-13.308594-2.683594-18.109375-7.488282-4.804687-4.800781-7.5-11.320312-7.488281-18.109374v-68.269532zm0 0" fill="#00bcd4"/><path d="m265.015625 332.800781-59.734375 51.199219-3.328125-2.902344-56.40625-48.296875c2.007813-4.015625 3.777344-8.148437 5.289063-12.375 3.652343-9.796875 6.394531-19.910156 8.195312-30.207031 1.109375-5.890625 1.875-11.351562 2.386719-16.128906l87.636719-.171875c1.6875 15.875 5.265624 31.488281 10.667968 46.507812 1.515625 4.226563 3.28125 8.359375 5.292969 12.375zm0 0" fill="#0377bc"/><path d="m239.414062 349.011719-37.460937 32.085937-56.40625-48.296875c2.007813-4.015625 3.777344-8.148437 5.289063-12.375 3.652343-9.796875 6.394531-19.910156 8.195312-30.207031l64.425781-.085938c1.683594 15.871094 5.265625 31.484376 10.667969 46.507813 1.511719 4.226563 3.28125 8.355469 5.289062 12.371094zm0 0" fill="#02a9f4"/><path d="m213.8125 384v119.464844h-17.066406v-119.464844c0-2.035156.726562-4 2.050781-5.546875l6.484375 5.546875 6.484375-5.546875c1.320313 1.546875 2.046875 3.511719 2.046875 5.546875zm0 0" fill="#2980ba"/><path d="m205.28125 384-34.132812 25.597656-85.335938-85.332031 34.132812-17.066406 25.601563 25.601562 53.25 45.652344zm0 0" fill="#3f51b5"/><path d="m324.746094 324.265625-85.332032 85.332031-34.132812-25.597656 6.484375-5.546875 53.25-45.652344 25.597656-25.601562zm0 0" fill="#3f51b5"/><path d="m290.613281 141.824219c0 3.242187 0 6.398437-.085937 9.46875.273437 20.671875-1.933594 41.296875-6.570313 61.441406-2.269531 9.015625-5.414062 17.792969-9.386719 26.199219-12.117187 25.597656-33.195312 51.199218-69.289062 51.199218-4.261719-.011718-8.515625-.382812-12.714844-1.109374h-.171875c-28.5-5.292969-45.992187-27.5625-56.574219-50.089844-3.945312-8.410156-7.0625-17.183594-9.300781-26.199219-4.597656-20.148437-6.773437-40.773437-6.488281-61.441406-.085938-1.875-.085938-72.617188-.085938-82.003907v-1.023437l151.46875 6.144531c12.03125 13.824219 19.199219 35.15625 19.199219 67.414063zm0 0" fill="#00838f"/><path d="m265.015625 141.824219c0 3.242187 0 6.398437-.085937 9.46875.269531 20.671875-1.9375 41.296875-6.570313 61.441406-2.273437 9.015625-5.414063 17.792969-9.386719 26.199219-10.582031 22.355468-28.078125 44.796875-56.40625 50.089844h-.171875c-28.5-5.292969-45.992187-27.5625-56.574219-50.089844-3.945312-8.410156-7.0625-17.183594-9.300781-26.199219-4.597656-20.148437-6.773437-40.773437-6.488281-61.441406-.085938-1.875-.085938-72.617188-.085938-82.003907l125.867188 5.121094c12.035156 13.824219 19.203125 35.15625 19.203125 67.414063zm0 0" fill="#00bcd4"/><path d="m222.347656 162.132812c-2.265625.003907-4.433594-.898437-6.035156-2.5-2.980469-3.082031-6.828125-5.1875-11.03125-6.035156-4.214844.851563-8.074219 2.964844-11.058594 6.058594-3.355468 3.242188-8.6875 3.191406-11.976562-.113281-3.289063-3.304688-3.320313-8.636719-.066406-11.976563 6.167968-6.273437 14.34375-10.175781 23.101562-11.035156 8.753906.859375 16.929688 4.761719 23.097656 11.035156 2.441406 2.441406 3.171875 6.109375 1.851563 9.296875-1.320313 3.1875-4.433594 5.269531-7.882813 5.269531zm0 0" fill="#2980ba"/><path d="m119.945312 145.066406h59.734376c4.714843 0 8.535156 3.820313 8.535156 8.53125v17.066406c0 9.425782-7.640625 17.066407-17.066406 17.066407h-34.132813c-9.425781 0-17.070313-7.640625-17.070313-17.066407zm0 0" fill="#02a9f4"/><path d="m230.878906 145.066406h59.734375v25.597656c0 9.425782-7.640625 17.066407-17.066406 17.066407h-34.132813c-9.425781 0-17.066406-7.640625-17.066406-17.066407v-17.066406c0-4.710937 3.820313-8.53125 8.53125-8.53125zm0 0" fill="#02a9f4"/><path d="m256.480469 76.800781c-50.773438 0-135.082031-16.8125-136.449219 74.492188-4.390625-4.230469-10.386719-6.371094-16.46875-5.886719l-.683594-.339844c-4.824218-19.578125-7.683594-39.589844-8.53125-59.734375 0-25.601562 8.53125-59.734375 59.734375-59.734375 51.199219 0 119.464844 8.535156 136.53125-17.066406 0 0 17.066407 68.269531-34.132812 68.269531zm0 0" fill="#3f51b5"/><path d="m256.480469 76.800781c-5.886719 0-12.289063-.257812-18.945313-.429687 29.867188-4.007813 31.488282-35.070313 29.695313-53.757813 9.242187-1.710937 17.550781-6.710937 23.382812-14.082031 0 0 17.066407 68.269531-34.132812 68.269531zm0 0" fill="#283593"/><path d="m205.28125 298.664062c-33.238281 0-59.929688-19.398437-77.183594-56.101562-4.179687-8.898438-7.476562-18.179688-9.851562-27.71875-4.78125-20.804688-7.046875-42.109375-6.75-63.453125-.078125-1.910156-.085938-4.070313-.085938-6.324219v-1.707031c0-4.714844 3.824219-8.535156 8.535156-8.535156 4.710938 0 8.535157 3.820312 8.535157 8.535156v1.707031c0 2.011719 0 3.949219.074219 5.882813-.3125 20.070312 1.777343 40.109375 6.226562 59.683593 2.105469 8.480469 5.03125 16.730469 8.738281 24.640626 14.464844 30.75 35.234375 46.324218 61.761719 46.324218 26.3125 0 47.03125-15.582031 61.578125-46.316406 3.742187-7.910156 6.699219-16.167969 8.828125-24.652344 4.488281-19.484375 6.605469-39.4375 6.308594-59.429687.085937-3.132813.085937-6.214844.085937-9.375 0-28.375-5.597656-48.59375-17.105469-61.808594-2-2.300781-2.625-5.492187-1.632812-8.375.988281-2.886719 3.445312-5.023437 6.4375-5.605469 2.992188-.585937 6.070312.472656 8.070312 2.773438 14.328126 16.460937 21.296876 40.34375 21.296876 73.015625 0 3.320312 0 6.558593-.085938 9.703125.289062 21.304687-2.007812 42.566406-6.832031 63.316406-2.402344 9.550781-5.734375 18.84375-9.949219 27.742188-17.363281 36.6875-43.988281 56.078124-77 56.078124zm0 0"/><path d="m125.25 221.609375c-.425781 0-.855469-.03125-1.277344-.09375-8.953125-1.34375-38.160156-9.035156-38.160156-51.449219 0-6.363281 0-25.734375 12.75-31.878906 7.527344-3.617188 17.042969-1.332031 26.785156 6.429688 2.382813 1.902343 3.574219 4.929687 3.121094 7.941406-.453125 3.015625-2.480469 5.5625-5.316406 6.675781-2.835938 1.117187-6.054688.632813-8.4375-1.265625-4.738282-3.777344-8.003906-4.601562-8.785156-4.386719.027343 0-3.050782 2.652344-3.050782 16.484375 0 26.988282 14.804688 33.242188 23.628906 34.570313 4.414063.667969 7.566407 4.621093 7.238282 9.070312-.332032 4.449219-4.03125 7.894531-8.496094 7.902344zm0 0"/><path d="m285.308594 221.609375c-4.460938-.007813-8.164063-3.453125-8.492188-7.902344-.332031-4.449219 2.824219-8.402343 7.234375-9.070312 8.824219-1.324219 23.628907-7.578125 23.628907-34.570313 0-13.851562-3.082032-16.492187-3.113282-16.515625-3.300781.503907-6.359375 2.050781-8.71875 4.417969-3.6875 2.933594-9.054687 2.328125-11.992187-1.359375s-2.328125-9.054687 1.359375-11.992187c9.753906-7.769532 19.265625-10.054688 26.78125-6.429688 12.75 6.144531 12.75 25.515625 12.75 31.878906 0 42.414063-29.203125 50.101563-38.152344 51.449219-.425781.0625-.855469.09375-1.285156.09375zm0 0"/><path d="m78.574219 494.164062c-.375 0-.75-.023437-1.117188-.070312-44.820312-5.964844-77.972656-44.707031-76.933593-89.910156 1.035156-45.203125 35.925781-82.382813 80.972656-86.285156l5.34375-.429688c3.070312-.304688 6.070312 1.070312 7.84375 3.601562 1.769531 2.53125 2.03125 5.820313.6875 8.601563s-4.085938 4.621094-7.167969 4.808594l-5.289063.425781c-36.363281 3.167969-64.515624 33.1875-65.351562 69.675781-.832031 36.492188 25.921875 67.765625 62.101562 72.589844 4.460938.578125 7.707032 4.519531 7.417969 9.011719-.289062 4.488281-4.011719 7.980468-8.511719 7.984375zm0 0"/><path d="m331.988281 494.164062c-4.5-.003906-8.222656-3.496093-8.511719-7.984374-.285156-4.492188 2.960938-8.433594 7.421876-9.011719 36.191406-4.828125 62.949218-36.121094 62.097656-72.625-.851563-36.5-29.042969-66.511719-65.421875-69.644531l-5.21875-.421876c-4.625-.464843-8.027344-4.542968-7.65625-9.171874.371093-4.632813 4.382812-8.117188 9.019531-7.835938l5.292969.425781c45.066406 3.867188 79.996093 41.042969 81.046875 86.265625 1.050781 45.21875-32.113282 83.976563-76.953125 89.933594-.371094.050781-.742188.070312-1.117188.070312zm0 0"/><path d="m307.679688 512h-204.800782c-18.839844-.023438-34.109375-15.292969-34.132812-34.132812v-51.203126c0-4.710937 3.820312-8.53125 8.535156-8.53125 4.710938 0 8.53125 3.820313 8.53125 8.53125v51.203126c.011719 9.421874 7.644531 17.054687 17.066406 17.066406h204.800782c9.421874-.011719 17.058593-7.644532 17.066406-17.066406v-51.203126c0-4.710937 3.820312-8.53125 8.535156-8.53125 4.710938 0 8.53125 3.820313 8.53125 8.53125v51.203126c-.019531 18.839843-15.289062 34.109374-34.132812 34.132812zm0 0"/><path d="m205.28125 392.53125c-2.039062.003906-4.007812-.726562-5.554688-2.054688l-59.734374-51.199218c-2.992188-2.566406-3.839844-6.847656-2.046876-10.363282 1.855469-3.707031 3.488282-7.527343 4.882813-11.433593 5.171875-14.304688 8.5625-29.1875 10.105469-44.320313.511718-4.6875 4.726562-8.066406 9.410156-7.554687 4.6875.511719 8.066406 4.726562 7.554688 9.414062-1.695313 16.535157-5.417969 32.804688-11.082032 48.433594-.945312 2.566406-1.867187 4.902344-2.800781 7.082031l49.265625 42.226563 49.261719-42.226563c-.9375-2.191406-1.871094-4.550781-2.828125-7.167968-5.660156-15.640626-9.402344-31.914063-11.132813-48.457032-.410156-3.054687.863281-6.089844 3.328125-7.945312 2.460938-1.851563 5.730469-2.234375 8.554688-.996094 2.824218 1.238281 4.757812 3.902344 5.066406 6.96875 1.578125 15.183594 4.996094 30.117188 10.175781 44.476562 1.398438 3.929688 3.039063 7.773438 4.90625 11.503907 1.792969 3.515625.945313 7.796875-2.046875 10.363281l-59.734375 51.199219c-1.546875 1.328125-3.515625 2.054687-5.550781 2.050781zm0 0"/><path d="m102.871094 153.597656c-3.910156-.003906-7.320313-2.667968-8.269532-6.460937-5.015624-20.25-7.960937-40.957031-8.789062-61.804688 0-44.019531 24.246094-68.265625 68.269531-68.265625 10.191407 0 21.046875.332032 32.050781.675782 38.464844 1.1875 86.308594 2.660156 97.382813-13.945313 1.871094-2.808594 5.226563-4.246094 8.554687-3.671875 3.324219.578125 6 3.058594 6.820313 6.335938.417969 1.667968 9.984375 41.007812-7.664063 63.609374-8.449218 10.382813-21.378906 16.0625-34.742187 15.261719h-.003906c-8.984375 0-18.695313-.738281-28.976563-1.519531-30.1875-2.304688-64.417968-4.898438-83.035156 12.351562-10.757812 9.972657-15.988281 25.96875-15.988281 48.902344.023437 3.046875-1.585938 5.875-4.214844 7.417969s-5.882813 1.566406-8.53125.0625c-2.652344-1.507813-4.300781-4.3125-4.320313-7.359375-.054687 3.871094-2.710937 7.21875-6.46875 8.15625-.675781.167969-1.375.253906-2.074218.253906zm51.210937-119.464844c-34.929687 0-51.203125 16.269532-51.203125 51.199219.855469 19.449219 3.628906 38.761719 8.277344 57.667969.15625.625.242188 1.261719.257812 1.90625.023438-27.867188 7.046876-47.902344 21.449219-61.257812 24.085938-22.320313 62.25-19.421876 95.933594-16.855469 9.949219.753906 19.351563 1.472656 27.683594 1.472656h.003906c8.082031.710937 16.011719-2.527344 21.289063-8.695313 6.171874-10.425781 8.554687-22.664062 6.753906-34.644531-22.289063 12.238281-61.121094 11.050781-98.917969 9.871094-10.824219-.332031-21.503906-.664063-31.527344-.664063zm0 0"/><path d="m307.679688 153.597656c-2.742188 0-5.316407-1.316406-6.921876-3.542968-1.601562-2.222657-2.039062-5.082032-1.171874-7.683594 6.617187-19.882813 13.78125-52.183594 8.996093-61.753906-5.84375-8.597657-13.59375-15.726563-22.648437-20.832032-2.546875-1.671875-4.011719-4.574218-3.839844-7.621094.171875-3.042968 1.957031-5.761718 4.679688-7.136718 2.722656-1.371094 5.96875-1.1875 8.519531.484375 11.660156 6.628906 21.476562 16.074219 28.554687 27.46875 9.625 19.257812-5.035156 65.671875-8.070312 74.785156-1.164063 3.484375-4.425782 5.832031-8.097656 5.832031zm0 0"/><path d="m171.152344 418.132812c-2.265625.003907-4.4375-.898437-6.039063-2.5l-85.332031-85.335937c-1.941406-1.9375-2.828125-4.691406-2.390625-7.398437.441406-2.707032 2.15625-5.039063 4.609375-6.265626l34.132812-17.066406c3.285157-1.636718 7.25-.996094 9.851563 1.597656l25.597656 25.601563c3.234375 3.347656 3.1875 8.671875-.101562 11.960937-3.292969 3.292969-8.617188 3.339844-11.964844.105469l-21.246094-21.25-18.050781 9.019531 71.730469 71.734376 28.210937-21.164063c3.769532-2.828125 9.121094-2.0625 11.945313 1.707031 2.828125 3.769532 2.066406 9.117188-1.703125 11.945313l-34.136719 25.601562c-1.472656 1.109375-3.269531 1.707031-5.113281 1.707031zm0 0"/><path d="m239.414062 418.132812c-1.847656 0-3.644531-.597656-5.121093-1.707031l-34.132813-25.601562c-3.769531-2.828125-4.535156-8.175781-1.707031-11.945313 2.828125-3.769531 8.175781-4.535156 11.949219-1.707031l28.210937 21.164063 71.730469-71.730469-18.046875-9.019531-21.246094 21.246093c-3.351562 3.234375-8.671875 3.1875-11.964843-.101562-3.289063-3.292969-3.335938-8.617188-.101563-11.964844l25.597656-25.597656c2.601563-2.589844 6.5625-3.230469 9.851563-1.601563l34.132812 17.066406c2.453125 1.226563 4.167969 3.558594 4.609375 6.265626.4375 2.707031-.449219 5.460937-2.390625 7.402343l-85.332031 85.332031c-1.601563 1.601563-3.773437 2.503907-6.039063 2.5zm0 0"/><path d="m205.28125 512c-4.714844 0-8.535156-3.820312-8.535156-8.535156v-119.464844c0-4.714844 3.820312-8.535156 8.535156-8.535156 4.710938 0 8.53125 3.820312 8.53125 8.535156v119.464844c0 4.714844-3.820312 8.535156-8.53125 8.535156zm0 0"/><path d="m171.148438 196.265625h-34.132813c-14.132813-.015625-25.585937-11.46875-25.601563-25.601563v-25.597656c0-4.714844 3.820313-8.535156 8.53125-8.535156h68.269532c4.710937 0 8.53125 3.820312 8.53125 8.535156v25.597656c-.015625 14.132813-11.46875 25.585938-25.597656 25.601563zm-42.667969-42.667969v17.066406c.007812 4.710938 3.824219 8.527344 8.535156 8.535157h34.132813c4.707031-.007813 8.527343-3.824219 8.53125-8.535157v-17.066406zm0 0"/><path d="m273.546875 196.265625h-34.132813c-14.132812-.015625-25.585937-11.46875-25.601562-25.601563v-25.597656c0-4.714844 3.820312-8.535156 8.535156-8.535156h68.265625c4.714844 0 8.535157 3.820312 8.535157 8.535156v25.597656c-.015626 14.132813-11.46875 25.585938-25.601563 25.601563zm-42.667969-42.667969v17.066406c.007813 4.710938 3.824219 8.527344 8.535156 8.535157h34.132813c4.710937-.007813 8.527344-3.824219 8.535156-8.535157v-17.066406zm0 0"/><path d="m222.347656 162.132812c-2.265625.003907-4.433594-.898437-6.035156-2.5-2.980469-3.082031-6.828125-5.1875-11.03125-6.035156-4.214844.851563-8.074219 2.964844-11.058594 6.058594-3.355468 3.242188-8.6875 3.191406-11.976562-.113281-3.289063-3.304688-3.320313-8.636719-.066406-11.976563 6.167968-6.273437 14.34375-10.175781 23.101562-11.035156 8.753906.859375 16.929688 4.761719 23.097656 11.035156 2.441406 2.441406 3.171875 6.109375 1.851563 9.296875-1.320313 3.1875-4.433594 5.269531-7.882813 5.269531zm0 0"/></svg>